<svg xmlns="http://www.w3.org/2000/svg" xmlns:xlink="http://www.w3.org/1999/xlink" width="26" height="14"><defs><path id="a" d="M6 0h12a6 6 0 1 1 0 12H6A6 6 0 1 1 6 0z"/><path id="b" d="M17.333 8a2 2 0 1 1 0-4 2 2 0 0 1 0 4zm0-1a1 1 0 1 0 0-2 1 1 0 0 0 0 2zM6 9.333a3.333 3.333 0 1 1 0-6.666 3.333 3.333 0 0 1 0 6.666z"/></defs><g fill="none" fill-rule="evenodd" transform="translate(1 1)"><use fill="#FFF" fill-rule="nonzero" stroke="#545D66" xlink:href="#a"/><use fill="#545D66" xlink:href="#b"/></g></svg>